<?xml version="1.0" encoding="iso-8859-1"?>
<!-- Generator: Adobe Illustrator 19.0.0, SVG Export Plug-In . SVG Version: 6.00 Build 0)  -->
<svg version="1.1" id="Capa_1" xmlns="http://www.w3.org/2000/svg" xmlns:xlink="http://www.w3.org/1999/xlink" x="0px" y="0px"
	 viewBox="0 0 512 512" style="enable-background:new 0 0 512 512;" xml:space="preserve">
<g>
	<g>
		<path d="M496,399.996H320c-4.256,0-8.32,1.696-11.328,4.672L256,457.372L203.328,404.7c-3.008-3.008-7.072-4.704-11.328-4.704H16
			c-8.832,0-16,7.168-16,16c0,8.832,7.168,16,16,16h169.376l59.328,59.328c6.24,6.24,16.384,6.24,22.624,0l59.296-59.328H496
			c8.832,0,16-7.168,16-16C512,407.164,504.832,399.996,496,399.996z"/>
	</g>
</g>
<g>
	<g>
		<path d="M479.04,219.516c-0.64-4.48-2.88-8.64-6.4-11.2c-3.52-2.56-8-3.84-12.48-2.88c-9.28,1.6-18.56,2.56-28.16,2.56
			c-79.36,0-144-64.64-144-144c0-9.6,0.96-18.88,2.56-28.16c0.96-4.48-0.32-8.96-2.88-12.48c-2.56-3.52-6.72-5.76-11.2-6.4
			c-7.04-0.64-13.44-0.96-20.48-0.96c-123.52,0-224,100.48-224,224c0,47.648,15.232,91.68,40.704,128H192
			c12.8,0,24.864,4.992,33.952,14.048L256,412.124l30.048-30.048c9.088-9.088,21.152-14.08,33.952-14.08h119.296
			c25.472-36.32,40.704-80.352,40.704-128C480,232.956,479.68,226.556,479.04,219.516z"/>
	</g>
</g>
<g>
</g>
<g>
</g>
<g>
</g>
<g>
</g>
<g>
</g>
<g>
</g>
<g>
</g>
<g>
</g>
<g>
</g>
<g>
</g>
<g>
</g>
<g>
</g>
<g>
</g>
<g>
</g>
<g>
</g>
</svg>
