<?xml version="1.0" encoding="iso-8859-1"?>
<!-- Generator: Adobe Illustrator 19.0.0, SVG Export Plug-In . SVG Version: 6.00 Build 0)  -->
<svg version="1.1" id="Capa_1" xmlns="http://www.w3.org/2000/svg" xmlns:xlink="http://www.w3.org/1999/xlink" x="0px" y="0px"
	 viewBox="0 0 512 512" style="enable-background:new 0 0 512 512;" xml:space="preserve">
<g>
	<g>
		<path d="M496,432H326.624l-59.328-59.328c-6.24-6.24-16.384-6.24-22.624,0L185.376,432H16c-8.832,0-16,7.168-16,16
			c0,8.832,7.168,16,16,16h176c4.256,0,8.32-1.696,11.328-4.672L256,406.624l52.672,52.672C311.68,462.304,315.744,464,320,464h176
			c8.832,0,16-7.168,16-16C512,439.168,504.832,432,496,432z"/>
	</g>
</g>
<g>
	<g>
		<path d="M479.04,251.52c-0.64-4.48-2.88-8.64-6.4-11.2c-3.52-2.56-8-3.84-12.48-2.88c-9.28,1.6-18.56,2.56-28.16,2.56
			c-79.36,0-144-64.64-144-144c0-9.6,0.96-18.88,2.56-28.16c0.96-4.48-0.32-8.96-2.88-12.48c-2.56-3.52-6.72-5.76-11.2-6.4
			C269.44,48.32,263.04,48,256,48C132.48,48,32,148.48,32,272c0,47.648,15.232,91.68,40.704,128h99.424l49.952-49.952
			c18.72-18.752,49.152-18.752,67.872,0L339.872,400h99.424C464.768,363.68,480,319.648,480,272
			C480,264.96,479.68,258.56,479.04,251.52z"/>
	</g>
</g>
<g>
</g>
<g>
</g>
<g>
</g>
<g>
</g>
<g>
</g>
<g>
</g>
<g>
</g>
<g>
</g>
<g>
</g>
<g>
</g>
<g>
</g>
<g>
</g>
<g>
</g>
<g>
</g>
<g>
</g>
</svg>
