<svg height="512" viewBox="0 0 512 512" width="512" xmlns="http://www.w3.org/2000/svg"><g id="Solid"><circle cx="256" cy="256" r="24"/><path d="m312 377.941-32 32v-73.941a24 24 0 0 0 -48 0v73.941l-32-32a22.627 22.627 0 0 0 -32 32l71.029 71.029a24 24 0 0 0 33.942 0l71.029-71.029a22.627 22.627 0 0 0 -32-32z"/><path d="m168 134.059a22.627 22.627 0 0 0 32 0l32-32v73.941a24 24 0 0 0 48 0v-73.941l32 32a22.627 22.627 0 0 0 32 0 22.627 22.627 0 0 0 0-32l-71.029-71.03a24 24 0 0 0 -33.942 0l-71.029 71.03a22.627 22.627 0 0 0 0 32z"/></g></svg>